<svg xmlns="http://www.w3.org/2000/svg" viewBox="0 0 95 95"><defs><style>.cls-1{fill:#e0e0e0;}</style></defs><g id="Layer_2" data-name="Layer 2"><g id="Layer_1-2" data-name="Layer 1"><g id="Layer_2-2" data-name="Layer 2"><g id="Layer_1-2-2" data-name="Layer 1-2"><g id="Layer_1-2-2-2" data-name="Layer 1-2-2"><rect class="cls-1" x="35" width="25" height="5"/><rect class="cls-1" x="25" y="5" width="10" height="5"/><rect class="cls-1" x="15" y="10" width="10" height="5"/><rect class="cls-1" x="5" y="25" width="5" height="10"/><rect class="cls-1" x="10" y="15" width="5" height="10"/><rect class="cls-1" y="35" width="5" height="25"/><rect class="cls-1" x="60" y="5" width="10" height="5"/><rect class="cls-1" x="70" y="10" width="10" height="5"/><rect class="cls-1" x="90" y="35" width="5" height="25"/><rect class="cls-1" x="85" y="25" width="5" height="10"/><rect class="cls-1" x="80" y="15" width="5" height="10"/><rect class="cls-1" x="25" y="85" width="10" height="5"/><rect class="cls-1" x="15" y="80" width="10" height="5"/><rect class="cls-1" x="35" y="90" width="25" height="5"/><rect class="cls-1" x="5" y="60" width="5" height="10"/><rect class="cls-1" x="10" y="70" width="5" height="10"/><rect class="cls-1" x="60" y="85" width="10" height="5"/><rect class="cls-1" x="70" y="80" width="10" height="5"/><rect class="cls-1" x="85" y="60" width="5" height="10"/><rect class="cls-1" x="80" y="70" width="5" height="10"/></g></g></g></g></g></svg>