<svg xmlns="http://www.w3.org/2000/svg" viewBox="0 0 145 145"><defs><style>.cls-1{fill:#7773a2;}</style></defs><g id="Layer_2" data-name="Layer 2"><g id="Layer_1-2" data-name="Layer 1"><rect class="cls-1" x="35" y="10" width="5" height="5"/><rect class="cls-1" x="20" y="20" width="5" height="5"/><rect class="cls-1" x="25" y="15" width="10" height="5"/><rect class="cls-1" x="40" y="5" width="15" height="5"/><rect class="cls-1" y="55" width="5" height="35"/><rect class="cls-1" x="10" y="35" width="5" height="5"/><rect class="cls-1" x="15" y="25" width="5" height="10"/><rect class="cls-1" x="5" y="40" width="5" height="15"/><rect class="cls-1" x="10" y="105" width="5" height="5"/><rect class="cls-1" x="20" y="120" width="5" height="5"/><rect class="cls-1" x="15" y="110" width="5" height="10"/><rect class="cls-1" x="5" y="90" width="5" height="15"/><rect class="cls-1" x="55" y="140" width="35" height="5"/><rect class="cls-1" x="40" y="135" width="15" height="5"/><rect class="cls-1" x="35" y="130" width="5" height="5"/><rect class="cls-1" x="25" y="125" width="10" height="5"/><rect class="cls-1" x="105" y="130" width="5" height="5"/><rect class="cls-1" x="120" y="120" width="5" height="5"/><rect class="cls-1" x="110" y="125" width="10" height="5"/><rect class="cls-1" x="90" y="135" width="15" height="5"/><rect class="cls-1" x="135" y="90" width="5" height="15"/><rect class="cls-1" x="130" y="105" width="5" height="5"/><rect class="cls-1" x="125" y="110" width="5" height="10"/><rect class="cls-1" x="140" y="55" width="5" height="35"/><rect class="cls-1" x="135" y="40" width="5" height="15"/><rect class="cls-1" x="130" y="35" width="5" height="5"/><rect class="cls-1" x="120" y="20" width="5" height="5"/><rect class="cls-1" x="125" y="25" width="5" height="10"/><rect class="cls-1" x="55" width="35" height="5"/><rect class="cls-1" x="90" y="5" width="15" height="5"/><rect class="cls-1" x="105" y="10" width="5" height="5"/><rect class="cls-1" x="110" y="15" width="10" height="5"/></g></g></svg>